<svg xmlns="http://www.w3.org/2000/svg" xmlns:xlink="http://www.w3.org/1999/xlink" width="1024" zoomAndPan="magnify" viewBox="0 0 768 767.999994" height="1024" preserveAspectRatio="xMidYMid meet" version="1.0"><path fill="#000000" d="M 187.519531 38.925781 C 168.175781 41.921875 151.863281 47.117188 134.40625 55.847656 C 85.777344 80.15625 51.546875 124.855469 39.1875 180.191406 L 36.890625 190.460938 L 36.621094 378.894531 C 36.375 550.667969 36.472656 568.21875 37.742188 577.402344 C 42.792969 613.960938 59.976562 649.433594 85.421875 675.820312 C 113.332031 704.765625 149.042969 723.324219 187.535156 728.878906 C 199.132812 730.550781 202.808594 730.585938 383.375 730.585938 C 542.828125 730.585938 568.691406 730.414062 577.082031 729.316406 C 616.199219 724.183594 651.703125 706.421875 679.867188 677.890625 C 705.636719 651.785156 722.113281 620.003906 729.136719 582.859375 L 730.964844 573.207031 L 731.234375 389.804688 C 731.421875 264.320312 731.226562 203.433594 730.613281 196.992188 C 727.253906 161.675781 712.808594 128.003906 688.648438 99.175781 C 680.964844 90.011719 666.960938 77.21875 656.269531 69.605469 C 638.226562 56.75 615.773438 46.65625 593.769531 41.511719 C 575.011719 37.121094 582.546875 37.269531 382.734375 37.351562 C 209.164062 37.425781 196.550781 37.527344 187.519531 38.925781 M 449.394531 185.789062 C 448.238281 186.140625 446.160156 187.023438 444.777344 187.753906 C 442.019531 189.207031 400.375 230.867188 397.550781 234.992188 C 386.070312 251.785156 384.183594 271.605469 392.417969 288.863281 C 393.832031 291.824219 397.4375 297.492188 400.429688 301.460938 L 405.875 308.679688 L 381.507812 333.046875 L 377.054688 328.949219 C 372.746094 324.992188 348.042969 301.011719 287.40625 241.945312 C 271.476562 226.429688 256.816406 212.375 254.820312 210.71875 C 246.738281 203.992188 237.636719 204.730469 232.316406 212.542969 C 230.269531 215.550781 224.28125 231.675781 222.4375 239.140625 C 220.058594 248.78125 219.214844 260.988281 220.261719 270.582031 C 222.445312 290.535156 228.921875 303.691406 246.726562 324.335938 C 253.613281 332.320312 284.070312 362.664062 306.515625 383.902344 C 313.085938 390.117188 318.460938 395.464844 318.460938 395.78125 C 318.460938 396.617188 236.671875 477.40625 223.429688 489.648438 C 217.457031 495.167969 214.375 501.042969 214.398438 506.851562 C 214.457031 520.191406 227.957031 528.828125 239.945312 523.191406 C 242.742188 521.878906 255.988281 508.859375 293.320312 470.734375 C 320.632812 442.84375 343.25 420.023438 343.582031 420.023438 C 343.914062 420.023438 346.414062 421.753906 349.136719 423.867188 C 358.515625 431.148438 373.394531 436.839844 382.9375 436.796875 C 393.921875 436.742188 407.246094 431.054688 415.625 422.835938 L 421.140625 417.429688 L 424.859375 421.035156 C 426.90625 423.015625 449.957031 446.359375 476.085938 472.902344 C 526.441406 524.058594 527.417969 524.917969 535.015625 524.921875 C 540.59375 524.925781 546.976562 521.660156 549.839844 517.335938 C 553.019531 512.527344 553.617188 504.128906 551.128906 499.25 C 549.558594 496.171875 535 481.449219 494.726562 442.21875 C 481.730469 429.558594 458.175781 407.089844 409.859375 361.269531 L 402.335938 354.132812 L 412.230469 344.074219 C 417.667969 338.539062 423.316406 332.960938 424.773438 331.671875 L 427.429688 329.328125 L 433.167969 333.6875 C 440.257812 339.070312 450.949219 344.183594 458.4375 345.773438 C 470.722656 348.375 481.910156 346.832031 493.371094 340.953125 C 499.59375 337.761719 502.25 335.421875 524.074219 313.902344 C 537.21875 300.945312 548.816406 289.25 549.851562 287.917969 C 555.554688 280.570312 551.183594 268.964844 541.757812 266.429688 C 539.144531 265.726562 537.667969 265.84375 534.273438 267.035156 C 530.597656 268.324219 526.988281 271.539062 506.5625 291.710938 C 481.777344 316.1875 478.960938 318.367188 471.121094 319.121094 C 464.726562 319.734375 456.558594 316.375 448.175781 309.679688 C 446.605469 308.425781 447.882812 307.015625 477.695312 277.113281 C 508.144531 246.566406 508.867188 245.765625 509.433594 241.898438 C 510.449219 234.996094 507.101562 228.828125 501.101562 226.539062 C 498.023438 225.363281 496.699219 225.289062 492.929688 226.070312 C 488.484375 226.996094 488.046875 227.386719 457.375 257.613281 L 426.316406 288.21875 L 423.078125 284.664062 C 417.457031 278.492188 415.503906 273.707031 415.460938 266 C 415.429688 260.578125 415.792969 258.59375 417.335938 255.6875 C 418.472656 253.550781 428.453125 242.921875 441.886719 229.539062 C 468.335938 203.195312 469.371094 201.582031 465.425781 192.890625 C 464.203125 190.195312 462.894531 188.964844 459.402344 187.222656 C 454.816406 184.9375 453.03125 184.683594 449.394531 185.789062 M 248.398438 252.273438 C 245.144531 267.34375 249.246094 281.855469 261.4375 298.414062 C 267.21875 306.261719 355.574219 394.695312 364.183594 401.253906 C 373.46875 408.324219 379.832031 410.285156 387.125 408.316406 C 391.460938 407.148438 396.84375 402.503906 399.1875 397.910156 L 400.890625 394.570312 L 376.253906 370.152344 C 362.703125 356.722656 328.921875 323.167969 301.1875 295.585938 C 273.449219 268.003906 250.558594 245.4375 250.316406 245.4375 C 250.074219 245.4375 249.210938 248.511719 248.398438 252.273438 " fill-opacity="1" fill-rule="evenodd"/></svg>